HIERARCHY
ROOT hip
{
	OFFSET 0.000000 0.000000 0.000000 
	CHANNELS 6 Xposition Yposition Zposition Xrotation Zrotation Yrotation
	JOINT abdomen
	{
		OFFSET 0.000000 3.402643 0.000000 
		CHANNELS 3 Xrotation Zrotation Yrotation
		JOINT chest
		{
			OFFSET 0.000000 8.438565 -0.680529 
			CHANNELS 3 Xrotation Zrotation Yrotation
			JOINT neck
			{
				OFFSET 0.000000 10.207942 -0.272212 
				CHANNELS 3 Xrotation Zrotation Yrotation
				JOINT head
				{
					OFFSET 0.000000 3.130431 0.000000 
					CHANNELS 3 Xrotation Zrotation Yrotation
					End Site
					{
						OFFSET 0.000000 3.130435 0.000000 
					}
				}
			}
			JOINT lCollar
			{
				OFFSET 3.470700 6.669187 -0.816635 
				CHANNELS 3 Yrotation Zrotation Xrotation
				JOINT lShldr
				{
					OFFSET 3.198488 0.000000 0.000000 
					CHANNELS 3 Zrotation Yrotation Xrotation
					JOINT lForeArm
					{
						OFFSET 10.139888 0.000000 0.000000 
						CHANNELS 3 Yrotation Zrotation Xrotation
						JOINT lHand
						{
							OFFSET 8.370511 0.000000 0.000000 
							CHANNELS 3 Zrotation Yrotation Xrotation
							End Site
							{
								OFFSET 4.083176 0.000000 0.000000 
							}
						}
					}
				}
			}
			JOINT rCollar
			{
				OFFSET -3.470700 6.669187 -0.816635 
				CHANNELS 3 Yrotation Zrotation Xrotation
				JOINT rShldr
				{
					OFFSET -3.198488 0.000000 0.000000 
					CHANNELS 3 Zrotation Yrotation Xrotation
					JOINT rForeArm
					{
						OFFSET -10.139888 0.000000 0.000000 
						CHANNELS 3 Yrotation Zrotation Xrotation
						JOINT rHand
						{
							OFFSET -8.370511 0.000000 0.000000 
							CHANNELS 3 Zrotation Yrotation Xrotation
							End Site
							{
								OFFSET -4.083176 0.000000 0.000000 
							}
						}
					}
				}
			}
		}
	}
	JOINT lThigh
	{
		OFFSET 5.308129 -1.633274 1.361059 
		CHANNELS 3 Xrotation Zrotation Yrotation
		JOINT lShin
		{
			OFFSET -2.041588 -20.007561 0.000000 
			CHANNELS 3 Xrotation Zrotation Yrotation
			JOINT lFoot
			{
				OFFSET 0.000000 -19.190928 -1.224953 
				CHANNELS 3 Xrotation Yrotation Zrotation
				End Site
				{
					OFFSET 0.000000 -2.449906 4.627600 
				}
			}
		}
	}
	JOINT rThigh
	{
		OFFSET -5.308129 -1.633274 1.361059 
		CHANNELS 3 Xrotation Zrotation Yrotation
		JOINT rShin
		{
			OFFSET 2.041588 -20.007561 0.000000 
			CHANNELS 3 Xrotation Zrotation Yrotation
			JOINT rFoot
			{
				OFFSET 0.000000 -19.190928 -1.224953 
				CHANNELS 3 Xrotation Yrotation Zrotation
				End Site
				{
					OFFSET 0.000000 -2.449906 4.627600 
				}
			}
		}
	}
}
MOTION
Frames: 19
Frame Time: 0.033333
1.208549 41.279716 50.022442 2.727824 0.215966 -30.101826 21.802118 -0.264601 0.814737 -20.839844 0.000000 0.000000 2.612039 -1.535806 20.950178 -2.520832 -1.255077 0.218355 -4.754609 -0.109184 -0.002653 -32.230022 -10.993043 -2.564483 -56.663689 -0.444159 -13.980127 20.211678 -14.389017 -1.536638 4.754609 0.109184 -0.002672 58.281670 -8.547538 17.575565 103.388062 0.234407 -3.896276 -16.386623 2.595365 -0.209685 -14.158556 27.589890 13.668833 2.534195 -4.962281 -9.884048 12.891352 -0.851292 -13.350523 -9.966578 -17.205799 -2.394801 31.694319 2.161852 -15.905798 -16.065796 -5.012678 19.172350 
1.229416 41.340805 50.013168 2.843277 0.134141 -30.162178 21.794712 -0.284973 0.823162 -20.839844 0.000000 0.000000 2.485065 -1.215601 20.720127 -2.520832 -1.255077 0.218355 -4.754609 -0.109184 -0.002653 -32.181782 -11.210576 -2.755249 -56.430870 -0.453070 -14.516000 20.200983 -14.575045 -1.556038 4.754609 0.109184 -0.002672 58.167255 -9.125241 16.533211 103.366844 0.272930 -5.060778 -15.795262 2.820502 -0.208318 -13.754611 27.591515 13.744874 1.927453 -4.949579 -9.779963 13.074903 -0.846880 -13.171396 -9.820097 -17.026648 -2.529269 31.198494 2.175376 -15.778871 -15.926474 -4.950657 18.930386 
1.234217 41.404896 50.009907 2.948960 0.071809 -30.162706 21.777542 -0.305335 0.831564 -20.839844 0.000000 0.000000 2.279739 -0.893487 20.450911 -2.520832 -1.255077 0.218355 -4.754609 -0.109184 -0.002653 -32.204063 -11.577635 -2.972970 -56.442829 -0.456309 -14.799630 20.297443 -14.487301 -1.551168 4.754609 0.109184 -0.002672 57.977917 -9.677734 15.525333 103.474030 0.298064 -6.073234 -15.554171 3.261998 -0.248835 -13.359180 27.565037 13.768208 1.272147 -4.954464 -9.651278 13.255860 -0.868256 -13.047847 -9.640143 -16.850065 -2.723602 30.684374 2.204422 -15.707096 -15.788888 -4.883934 18.734484 
1.212451 41.471504 50.017693 3.015605 -0.049006 -30.088705 21.760462 -0.300605 0.828939 -20.839844 0.000000 0.000000 2.133254 -0.798790 20.235020 -2.520832 -1.255077 0.218355 -4.754609 -0.109184 -0.002653 -32.262871 -12.025340 -3.034529 -56.733688 -0.464045 -15.256887 20.283871 -14.291524 -1.519416 4.754609 0.109184 -0.002672 57.789085 -10.370102 14.662121 103.775681 0.318025 -6.671780 -15.486226 3.576299 -0.284243 -12.925249 27.562613 13.893103 0.657012 -4.956841 -9.702543 13.398496 -0.872457 -12.981650 -9.308486 -16.661655 -3.047583 30.129948 2.228220 -15.599951 -15.676863 -4.827818 18.577215 
1.172634 41.537609 50.023952 3.101801 -0.189303 -30.006363 21.743467 -0.279853 0.811672 -20.839844 0.000000 0.000000 2.026113 -1.009628 20.071482 -2.520832 -1.255077 0.218355 -4.754609 -0.109184 -0.002653 -32.338398 -12.571448 -3.119234 -57.185371 -0.470395 -15.745411 20.243877 -14.124906 -1.486814 4.754609 0.109184 -0.002672 57.356197 -10.877922 14.240765 104.319458 0.338505 -7.394803 -15.375790 3.400305 -0.268224 -12.452186 27.616514 14.108833 0.039483 -4.974856 -9.809699 13.525917 -0.884457 -12.947748 -8.971401 -16.385681 -3.322208 29.586754 2.252723 -15.531119 -15.586618 -4.804251 18.425354 
1.131323 41.598209 50.025208 3.188038 -0.368575 -30.004759 21.726524 -0.255627 0.785278 -20.839844 0.000000 0.000000 2.046379 -1.175435 19.985601 -2.520832 -1.255077 0.218355 -4.754609 -0.109184 -0.002653 -32.256584 -13.060281 -3.416199 -57.940247 -0.469020 -15.815118 20.333866 -13.782356 -1.451348 4.754609 0.109184 -0.002672 56.746071 -10.641237 14.347443 104.774010 0.344757 -7.483580 -15.468391 3.077223 -0.237019 -11.949555 27.729445 14.358318 -0.605808 -4.991042 -9.915499 13.676764 -0.904390 -13.003527 -8.668444 -16.040064 -3.389127 29.073051 2.247811 -15.642459 -15.460575 -4.754203 18.363161 
1.076933 41.654266 50.022934 3.235234 -0.547874 -30.158972 21.719280 -0.225809 0.771640 -20.839844 0.000000 0.000000 2.242670 -1.011615 19.953596 -2.520832 -1.255077 0.218355 -4.754609 -0.109184 -0.002653 -32.013046 -13.592399 -3.448792 -58.436234 -0.463286 -15.291394 20.888134 -13.519510 -1.484371 4.754609 0.109184 -0.002672 56.175564 -9.628847 14.815008 105.106483 0.307319 -6.240738 -15.826548 2.734587 -0.207550 -11.310109 27.885397 14.519732 -1.232629 -4.982048 -9.760779 13.777072 -0.924288 -13.210751 -8.458830 -15.657276 -3.162551 28.661709 2.254703 -15.881681 -15.273891 -4.764674 18.356285 
1.000511 41.709843 50.029209 3.272563 -0.600497 -30.382902 21.682619 -0.224535 0.778101 -20.839844 0.000000 0.000000 2.448881 -0.751618 19.954563 -2.520832 -1.255077 0.218355 -4.754609 -0.109184 -0.002653 -31.707716 -14.328277 -3.295714 -58.375557 -0.451194 -14.943823 21.263906 -13.648125 -1.556010 4.754609 0.109184 -0.002672 55.745430 -8.112583 15.230169 105.781693 0.255067 -4.565562 -16.153040 2.136802 -0.147495 -10.690334 27.950323 14.560792 -1.846100 -4.962940 -9.442229 13.909475 -0.961710 -13.460397 -8.391040 -15.382327 -2.946384 28.370420 2.239440 -16.117449 -15.085467 -4.733570 18.326733 
0.898972 41.768932 50.046013 3.309801 -0.545917 -30.560902 21.616680 -0.241402 0.777321 -20.839844 0.000000 0.000000 2.576595 -0.644488 19.883575 -2.520832 -1.255077 0.218355 -4.754609 -0.109184 -0.002653 -31.410631 -15.000411 -3.894249 -59.199986 -0.455502 -14.912342 20.764641 -13.352343 -1.450923 4.754609 0.109184 -0.002672 55.515812 -6.184447 15.638912 106.306961 0.174994 -1.950780 -16.166830 1.244102 -0.039751 -10.099927 27.914614 14.567099 -2.462120 -4.925638 -9.114378 14.050838 -0.982533 -13.487062 -8.388956 -15.189865 -2.655546 28.172909 2.226437 -16.493773 -14.906575 -4.700142 18.233574 
0.784418 41.830017 50.081875 3.229848 -0.481662 -30.580872 21.570292 -0.267387 0.773039 -20.839844 0.000000 0.000000 2.780417 -0.471869 19.472641 -2.520832 -1.255077 0.218355 -4.754609 -0.109184 -0.002653 -31.325399 -15.327069 -6.285484 -63.394844 -0.424943 -13.094812 19.474447 -10.838817 -0.979487 4.754609 0.109184 -0.002672 55.103596 -3.900846 16.574776 106.169212 0.068898 1.733225 -16.117592 -0.090978 0.139369 -9.441458 27.788185 14.438339 -3.097494 -4.907597 -8.734776 14.114255 -0.978655 -13.393196 -8.180993 -15.054646 -2.425052 27.937025 2.199318 -16.866058 -14.797030 -4.704499 18.099463 
0.700443 41.892101 50.158882 2.837352 -0.310260 -30.709997 21.562998 -0.333208 0.763615 -20.839844 0.000000 0.000000 3.451214 -0.130756 18.814371 -2.520832 -1.255077 0.218355 -4.754609 -0.109184 -0.002653 -31.681112 -15.464200 -11.298822 -72.382919 -0.358931 -8.813490 16.595551 -5.506288 -0.156569 4.754609 0.109184 -0.002672 53.807770 -0.551488 19.067177 106.027580 -0.020924 4.667631 -16.928188 -2.966985 0.507538 -9.026837 27.451498 13.887513 -2.663485 -4.826400 -7.808396 13.512989 -0.919528 -13.320056 -7.728819 -15.338338 -2.305080 27.676640 2.228265 -16.749022 -14.754935 -4.666635 18.011065 
0.755428 41.952698 50.262981 2.122666 0.358955 -31.925083 21.574749 -0.502147 0.860405 -20.839844 0.000000 0.000000 4.583647 -0.268973 18.565441 -2.520832 -1.255077 0.218355 -4.754609 -0.109184 -0.002653 -33.032146 -15.691258 -19.415508 -85.733994 -0.265550 -3.794004 10.912044 0.924952 0.406319 4.754609 0.109184 -0.002672 51.965309 5.779006 23.988697 106.287643 -0.154268 8.734497 -18.397015 -8.338468 1.325523 -7.869991 26.470076 12.791468 -2.694430 -4.565830 -4.891526 13.297124 -0.962974 -13.749446 -7.805581 -16.514771 -1.725632 27.570183 2.295920 -15.667356 -14.563885 -4.537878 17.868219 
1.032629 41.971649 50.347488 1.428098 1.614600 -35.038143 21.566277 -0.691131 1.064766 -20.839844 0.000000 0.000000 5.843544 -1.710607 19.427397 -2.520832 -1.255077 0.218355 -4.754609 -0.109184 -0.002653 -36.705982 -17.252419 -25.082413 -101.509750 -0.157682 1.706721 5.265462 5.749015 0.293118 4.754609 0.109184 -0.002672 51.767029 16.364790 31.334318 106.736710 -0.461584 18.507732 -17.726700 -14.922580 2.181048 -6.156454 25.203333 11.667068 -3.288347 -4.232799 -1.270153 14.088349 -1.228838 -15.651242 -9.532513 -18.385061 0.243762 27.858398 2.384740 -13.942050 -13.973431 -4.339977 18.014633 
1.502455 41.861187 50.381336 1.144133 2.987686 -39.715321 21.587067 -0.736337 1.220805 -20.839844 0.000000 0.000000 6.604883 -4.359075 21.275812 -2.520832 -1.255077 0.218355 -4.754609 -0.109184 -0.002653 -41.761433 -21.978983 -19.143663 -114.349213 -0.008464 11.070333 3.226185 6.508439 0.187482 4.754609 0.109184 -0.002672 56.240082 29.712112 41.383156 106.441330 -0.891832 33.374710 -14.396970 -20.093933 2.274284 -11.181962 26.015434 9.640554 8.784069 -4.354240 -3.493927 9.216942 -0.562863 -19.076670 -13.228733 -19.868671 3.830177 28.829409 2.443503 -12.257487 -13.201626 -4.215477 18.838745 
2.039656 41.512074 50.441532 1.213987 4.061591 -44.200638 21.753641 -0.457982 1.120846 -20.839844 0.000000 0.000000 6.423755 -6.947094 22.687830 -2.520832 -1.255077 0.218355 -4.754609 -0.109184 -0.002653 -41.859238 -26.792150 -9.875978 -121.776070 0.180299 24.535580 1.706606 2.545155 0.297072 4.754609 0.109184 -0.002672 66.604752 40.288311 55.874748 106.905792 -1.153121 43.247253 -14.250154 -24.879452 2.774557 -15.037214 27.943680 10.391455 17.633841 -4.580420 -9.140333 6.025711 -0.469661 -19.849977 -17.810076 -20.515516 7.663414 31.002785 2.425704 -11.069828 -12.974365 -4.327711 20.333893 
2.599440 41.037045 50.563435 1.714247 4.490185 -46.252117 21.971329 0.132962 0.748521 -20.839844 0.000000 0.000000 5.755125 -7.193605 21.844347 -2.520832 -1.255077 0.218355 -4.754609 -0.109184 -0.002653 -34.220085 -29.794292 -5.293457 -126.215240 0.356356 37.615887 2.226050 -3.512733 0.582226 4.754609 0.109184 -0.002672 75.735794 39.047997 64.502419 110.086479 -1.236252 46.689621 -18.811253 -27.592899 4.274885 -18.621410 30.093718 10.863983 22.448820 -4.444212 -10.834288 4.796228 -0.705288 -16.780348 -21.109558 -20.798277 9.174255 33.287079 2.395750 -10.208616 -13.332318 -4.650785 22.284714 
3.121626 40.560513 50.906528 2.437729 4.049079 -43.518913 22.140999 0.817642 0.459265 -20.839844 0.000000 0.000000 5.419062 -4.783744 18.666626 -2.520832 -1.255077 0.218355 -4.754609 -0.109184 -0.002653 -24.404737 -34.751514 -2.422354 -125.263672 0.443933 45.398357 1.791525 -4.408750 0.663566 4.754609 0.109184 -0.002672 76.792732 27.787512 60.266304 114.394928 -1.225097 45.805279 -23.764412 -22.601755 4.614033 -22.975752 30.356283 9.012723 22.039736 -4.330158 -8.557626 7.279860 -0.869299 -12.610403 -20.935268 -21.853777 6.730519 34.842155 2.347591 -10.257606 -14.058032 -5.211084 24.534746 
3.572065 40.121609 51.607273 2.708853 3.023968 -35.442608 22.106413 1.385720 0.531250 -20.839844 0.000000 0.000000 5.091866 -2.004730 15.328188 -2.520832 -1.255077 0.218355 -4.754609 -0.109184 -0.002653 -16.927008 -44.669029 -3.776982 -118.444756 0.430150 44.655910 -0.446951 -2.616688 0.500487 4.754609 0.109184 -0.002672 72.808174 13.481965 53.040367 117.316460 -1.049815 38.752541 -24.806398 -10.614615 2.423848 -28.420797 27.287111 6.451743 20.453661 -4.394779 -8.476020 11.196917 -0.940429 -7.281946 -16.522230 -24.021585 0.450534 35.866703 2.264993 -11.958466 -14.858910 -5.812747 26.233200 
3.879042 39.685711 52.559837 2.286417 1.902782 -24.220636 21.893610 1.611911 0.952834 -20.839844 0.000000 0.000000 4.067579 0.335523 13.993915 -2.520832 -1.255077 0.218355 -4.754609 -0.109184 -0.002653 -16.455355 -55.391270 -4.247859 -111.596741 0.351074 39.642700 -1.287030 -0.904703 0.282742 4.754609 0.109184 -0.002672 68.279411 4.156400 48.916534 117.449020 -0.795288 29.187840 -21.119219 -1.902468 0.552401 -34.055904 22.085228 2.759089 22.868340 -4.453889 -11.742624 11.630342 -1.080756 -3.224738 -8.984371 -25.437445 -7.250261 36.526321 2.048166 -16.074781 -15.301260 -6.380413 27.564970 
